<?xml version="1.0" encoding="UTF-8"?>
<svg version="1.1" xmlns="http://www.w3.org/2000/svg" width="66" height="80">
  <defs>
    <!-- Define the gradient from red to blue -->
    <linearGradient id="gradient1" x1="0%" y1="0%" x2="100%" y2="0%">
      <stop offset="0%" style="stop-color:#2300a2; stop-opacity:1" />
      <stop offset="100%" style="stop-color:#f00c09; stop-opacity:1" />
    </linearGradient>
  </defs>

  <!-- Apply the gradient to each path -->
  <path d="M0 0 C1.32 0 2.64 0 4 0 C4 5.94 4 11.88 4 18 C4.99 18.33 5.98 18.66 7 19 C7 30.22 7 41.44 7 53 C8.32 53 9.64 53 11 53 C10.67 54.65 10.34 56.3 10 58 C-3.2 58 -16.4 58 -30 58 C-30.33 56.35 -30.66 54.7 -31 53 C-29.35 53 -27.7 53 -26 53 C-26 43.76 -26 34.52 -26 25 C-21.38 25 -16.76 25 -12 25 C-12 34.24 -12 43.48 -12 53 C-10.35 53 -8.7 53 -7 53 C-7 41.12 -7 29.24 -7 17 C-8.98 17.99 -10.96 18.98 -13 20 C-13.33 20.99 -13.66 21.98 -14 23 C-15.32 22.67 -16.64 22.34 -18 22 C-18.5 19.8125 -18.5 19.8125 -18 17 C-15.53061201 14.9738355 -12.79725495 13.52431675 -10 12 C-9.01 11.34 -8.02 10.68 -7 10 C-5.68 10 -4.36 10 -3 10 C-3 24.19 -3 38.38 -3 53 C-1.35 53 0.3 53 2 53 C1.8820238 48.74564921 1.7577963 44.49154179 1.62768555 40.23754883 C1.5842837 38.7893576 1.54261256 37.34111346 1.50268555 35.89282227 C1.44510938 33.81510441 1.38137972 31.73765427 1.31640625 29.66015625 C1.26141968 27.78275757 1.26141968 27.78275757 1.20532227 25.86743164 C1.32196094 23.10369496 1.32196094 23.10369496 0 22 C-0.08700342 20.36527118 -0.10701063 18.72685945 -0.09765625 17.08984375 C-0.09443359 16.10048828 -0.09121094 15.11113281 -0.08789062 14.09179688 C-0.07951172 13.05087891 -0.07113281 12.00996094 -0.0625 10.9375 C-0.05798828 9.89271484 -0.05347656 8.84792969 -0.04882812 7.77148438 C-0.03699913 5.1809334 -0.02051689 2.59049441 0 0 Z M-22 30 C-22 37.59 -22 45.18 -22 53 C-20.02 53 -18.04 53 -16 53 C-16 45.41 -16 37.82 -16 30 C-17.98 30 -19.96 30 -22 30 Z" fill="url(#gradient1)" transform="translate(43,0)"/>

  <path d="M0 0 C0.33 0.99 0.66 1.98 1 3 C-0.3984375 4.7265625 -0.3984375 4.7265625 -2.375 6.625 C-5.74775389 10.29455623 -7.03166007 12.91347496 -7.203125 17.89453125 C-6.75411735 22.54866825 -4.85837055 25.20600724 -1.5 28.3125 C2.7594529 31.18763071 6.55762261 31.17339926 11.51953125 31.203125 C12.25572189 31.20882507 12.99191254 31.21452515 13.75041199 31.22039795 C15.30795866 31.22983756 16.8655252 31.23637781 18.4230957 31.24023438 C20.79349086 31.24992231 23.16301203 31.28094675 25.53320312 31.3125 C27.04947404 31.31903241 28.56575113 31.32428195 30.08203125 31.328125 C30.78536087 31.3404718 31.48869049 31.3528186 32.21333313 31.36553955 C38.06441469 31.33935333 42.01705942 29.82216161 46.3125 25.875 C48.60906697 21.96233035 49.20024222 18.51746443 49 14 C47.30297621 9.19176593 44.32819894 5.77795555 41 2 C41.33 1.34 41.66 0.68 42 0 C44.83842501 0.08348309 46.54049314 0.5723728 48.6328125 2.51953125 C53.64832746 8.27404721 54.30750928 12.46793538 54.20703125 20.05859375 C53.80923016 25.71037153 51.57417386 28.65177296 47.5 32.3125 C42.71618906 36.30949993 38.18681684 36.17269673 32.16796875 36.203125 C30.86391838 36.21167511 30.86391838 36.21167511 29.53352356 36.22039795 C27.69350398 36.22984278 25.85346752 36.23637988 24.01342773 36.24023438 C21.20851856 36.24992737 18.40434621 36.2809501 15.59960938 36.3125 C13.80990017 36.31903168 12.02018574 36.3242815 10.23046875 36.328125 C8.97861031 36.3466452 8.97861031 36.3466452 7.70146179 36.36553955 C1.86929311 36.34340341 -2.42441544 35.37580127 -6.86328125 31.28125 C-7.34152344 30.6934375 -7.81976563 30.105625 -8.3125 29.5 C-8.80363281 28.9121875 -9.29476563 28.324375 -9.80078125 27.71875 C-13.16777072 22.89309735 -12.52293343 16.60700839 -12 11 C-10.19956271 5.48126831 -6.12615937 0 0 0 Z" fill="url(#gradient1)" transform="translate(12,44)"/>

  <path d="M0 0 C3 1 3 1 4.79125977 3.02709961 C9.10777023 6.88271153 15.42492105 5.609711 20.9375 5.5625 C22.85079102 5.59827148 22.85079102 5.59827148 24.80273438 5.63476562 C32.21935513 5.92812695 32.21935513 5.92812695 38.37890625 2.46484375 C38.91386719 1.65144531 39.44882812 0.83804688 40 0 C40.99 0.33 41.98 0.66 43 1 C43.3125 3.25 43.3125 3.25 43 6 C40.1741567 8.96957621 38.48031309 9.93112393 34.390625 10.51757812 C33.01065777 10.54377474 31.63012411 10.54716355 30.25 10.53125 C29.14640137 10.53699036 29.14640137 10.53699036 28.02050781 10.54284668 C26.47068914 10.54555903 24.92082416 10.53824519 23.37109375 10.52148438 C21.00676857 10.50006133 18.64548134 10.52130511 16.28125 10.546875 C14.77082667 10.5442316 13.26040521 10.53910636 11.75 10.53125 C11.0477832 10.53934692 10.34556641 10.54744385 9.62207031 10.55578613 C6.05949734 10.48815602 4.07960882 10.05014935 1.0390625 8.13476562 C0.72460938 7.890625 0 8 0 8 C0 5.5140625 0 3.03 0 0 Z" fill="url(#gradient1)" transform="translate(0,60)"/>

</svg>
