<?xml version="1.0" encoding="UTF-8"?>
<svg version="1.1" xmlns="http://www.w3.org/2000/svg" width="83" height="80">
  <defs>
    <!-- Define the gradient from red to blue -->
    <linearGradient id="gradient1" x1="0%" y1="0%" x2="100%" y2="0%">
      <stop offset="0%" style="stop-color:#2300a2; stop-opacity:1" />
      <stop offset="100%" style="stop-color:#f00c09; stop-opacity:1" />
    </linearGradient>
  </defs>
<path d="M0 0 C0.99 0 1.98 0 3 0 C3 0.66 3 1.32 3 2 C4.65 2 6.3 2 8 2 C8 1.34 8 0.68 8 0 C8.78117187 0.23009766 8.78117187 0.23009766 9.578125 0.46484375 C12.63278515 1.13982511 15.63015971 1.34411118 18.75 1.5625 C20.8125 1.706875 22.875 1.85125 25 2 C25 6.62 25 11.24 25 16 C26.65 16 28.3 16 30 16 C30.33 15.01 30.66 14.02 31 13 C31.99 13.33 32.98 13.66 34 14 C34 14.66 34 15.32 34 16 C35.32 16 36.64 16 38 16 C38.33 15.01 38.66 14.02 39 13 C39.99 13.33 40.98 13.66 42 14 C42 14.66 42 15.32 42 16 C43.65 16 45.3 16 47 16 C47 37.12 47 58.24 47 80 C19.61 80 -7.78 80 -36 80 C-36 58.88 -36 37.76 -36 16 C-34.35 16 -32.7 16 -31 16 C-30.67 15.01 -30.34 14.02 -30 13 C-29.01 13.33 -28.02 13.66 -27 14 C-27 14.66 -27 15.32 -27 16 C-25.68 16 -24.36 16 -23 16 C-22.67 15.01 -22.34 14.02 -22 13 C-21.01 13.33 -20.02 13.66 -19 14 C-19 14.66 -19 15.32 -19 16 C-17.35 16 -15.7 16 -14 16 C-14 11.38 -14 6.76 -14 2 C-11.875625 1.855625 -9.75125 1.71125 -7.5625 1.5625 C-3.45880084 1.63463644 -3.45880084 1.63463644 0 0 Z M-11 6 C-11 29.43 -11 52.86 -11 77 C-9.68 77 -8.36 77 -7 77 C-7 72.38 -7 67.76 -7 63 C1.25 63 9.5 63 18 63 C18 67.62 18 72.24 18 77 C19.32 77 20.64 77 22 77 C22 53.57 22 30.14 22 6 C11.11 6 0.22 6 -11 6 Z M-33 20 C-33 35.18 -33 50.36 -33 66 C-26.73 66 -20.46 66 -14 66 C-14 50.82 -14 35.64 -14 20 C-20.27 20 -26.54 20 -33 20 Z M25 20 C25 35.18 25 50.36 25 66 C31.27 66 37.54 66 44 66 C44 50.82 44 35.64 44 20 C37.73 20 31.46 20 25 20 Z M-4 67 C-4 70.3 -4 73.6 -4 77 C-1.36 77 1.28 77 4 77 C4 73.7 4 70.4 4 67 C1.36 67 -1.28 67 -4 67 Z M7 67 C7 70.3 7 73.6 7 77 C9.64 77 12.28 77 15 77 C15 73.7 15 70.4 15 67 C12.36 67 9.72 67 7 67 Z M-33 69 C-33 71.64 -33 74.28 -33 77 C-26.73 77 -20.46 77 -14 77 C-14 74.36 -14 71.72 -14 69 C-20.27 69 -26.54 69 -33 69 Z M25 69 C25 71.64 25 74.28 25 77 C31.27 77 37.54 77 44 77 C44 74.36 44 71.72 44 69 C37.73 69 31.46 69 25 69 Z " fill="url(#gradient1)" transform="translate(36,0)"/>
<path d="M0 0 C3.5 0.125 3.5 0.125 4.5 1.125 C4.625 4.625 4.625 4.625 4.5 8.125 C3.5 9.125 3.5 9.125 0 9.25 C-3.5 9.125 -3.5 9.125 -4.5 8.125 C-4.625 4.625 -4.625 4.625 -4.5 1.125 C-3.5 0.125 -3.5 0.125 0 0 Z " fill="#url(#gradient1)" transform="translate(48.5,22.875)"/>
<path d="M0 0 C3.5 0.125 3.5 0.125 4.5 1.125 C4.625 4.625 4.625 4.625 4.5 8.125 C3.5 9.125 3.5 9.125 0 9.25 C-3.5 9.125 -3.5 9.125 -4.5 8.125 C-4.625 4.625 -4.625 4.625 -4.5 1.125 C-3.5 0.125 -3.5 0.125 0 0 Z " fill="#url(#gradient1)" transform="translate(34.5,22.875)"/>
<path d="M0 0 C3.5 0.125 3.5 0.125 4.5 1.125 C4.625 4.625 4.625 4.625 4.5 8.125 C3.5 9.125 3.5 9.125 0 9.25 C-3.5 9.125 -3.5 9.125 -4.5 8.125 C-4.625 4.625 -4.625 4.625 -4.5 1.125 C-3.5 0.125 -3.5 0.125 0 0 Z " fill="#url(#gradient1)" transform="translate(48.5,11.875)"/>
<path d="M0 0 C3.5 0.125 3.5 0.125 4.5 1.125 C4.625 4.625 4.625 4.625 4.5 8.125 C3.5 9.125 3.5 9.125 0 9.25 C-3.5 9.125 -3.5 9.125 -4.5 8.125 C-4.625 4.625 -4.625 4.625 -4.5 1.125 C-3.5 0.125 -3.5 0.125 0 0 Z " fill="#url(#gradient1)" transform="translate(34.5,11.875)"/>
<path d="M0 0 C3.5 0.125 3.5 0.125 4.5 1.125 C4.625 4.625 4.625 4.625 4.5 8.125 C3.5 9.125 3.5 9.125 0 9.25 C-3.5 9.125 -3.5 9.125 -4.5 8.125 C-4.625 4.625 -4.625 4.625 -4.5 1.125 C-3.5 0.125 -3.5 0.125 0 0 Z M-0.5 3.125 C0.5 5.125 0.5 5.125 0.5 5.125 Z " fill="#url(#gradient1)" transform="translate(70.5,54.875)"/>
<path d="M0 0 C3.5 0.125 3.5 0.125 4.5 1.125 C4.625 4.625 4.625 4.625 4.5 8.125 C3.5 9.125 3.5 9.125 0 9.25 C-3.5 9.125 -3.5 9.125 -4.5 8.125 C-4.625 4.625 -4.625 4.625 -4.5 1.125 C-3.5 0.125 -3.5 0.125 0 0 Z M-0.5 3.125 C0.5 5.125 0.5 5.125 0.5 5.125 Z " fill="#url(#gradient1)" transform="translate(12.5,54.875)"/>
<path d="M0 0 C3.5 0.125 3.5 0.125 4.5 1.125 C4.625 4.625 4.625 4.625 4.5 8.125 C3.5 9.125 3.5 9.125 0 9.25 C-3.5 9.125 -3.5 9.125 -4.5 8.125 C-4.625 4.625 -4.625 4.625 -4.5 1.125 C-3.5 0.125 -3.5 0.125 0 0 Z M-0.5 4.125 C0.5 6.125 0.5 6.125 0.5 6.125 Z " fill="#url(#gradient1)" transform="translate(48.5,44.875)"/>
<path d="M0 0 C3.5 0.125 3.5 0.125 4.5 1.125 C4.625 4.625 4.625 4.625 4.5 8.125 C3.5 9.125 3.5 9.125 0 9.25 C-3.5 9.125 -3.5 9.125 -4.5 8.125 C-4.625 4.625 -4.625 4.625 -4.5 1.125 C-3.5 0.125 -3.5 0.125 0 0 Z M-0.5 4.125 C0.5 6.125 0.5 6.125 0.5 6.125 Z " fill="#url(#gradient1)" transform="translate(34.5,44.875)"/>
<path d="M0 0 C3.5 0.125 3.5 0.125 4.5 1.125 C4.625 4.625 4.625 4.625 4.5 8.125 C3.5 9.125 3.5 9.125 0 9.25 C-3.5 9.125 -3.5 9.125 -4.5 8.125 C-4.625 4.625 -4.625 4.625 -4.5 1.125 C-3.5 0.125 -3.5 0.125 0 0 Z M-0.5 3.125 C0.5 5.125 0.5 5.125 0.5 5.125 Z " fill="#url(#gradient1)" transform="translate(70.5,43.875)"/>
<path d="M0 0 C3.5 0.125 3.5 0.125 4.5 1.125 C4.625 4.625 4.625 4.625 4.5 8.125 C3.5 9.125 3.5 9.125 0 9.25 C-3.5 9.125 -3.5 9.125 -4.5 8.125 C-4.625 4.625 -4.625 4.625 -4.5 1.125 C-3.5 0.125 -3.5 0.125 0 0 Z M-0.5 3.125 C0.5 5.125 0.5 5.125 0.5 5.125 Z " fill="#url(#gradient1)" transform="translate(12.5,43.875)"/>
<path d="M0 0 C3.5 0.125 3.5 0.125 4.5 1.125 C4.625 4.625 4.625 4.625 4.5 8.125 C3.5 9.125 3.5 9.125 0 9.25 C-3.5 9.125 -3.5 9.125 -4.5 8.125 C-4.625 4.625 -4.625 4.625 -4.5 1.125 C-3.5 0.125 -3.5 0.125 0 0 Z M-0.5 4.125 C0.5 6.125 0.5 6.125 0.5 6.125 Z " fill="#url(#gradient1)" transform="translate(48.5,33.875)"/>
<path d="M0 0 C3.5 0.125 3.5 0.125 4.5 1.125 C4.625 4.625 4.625 4.625 4.5 8.125 C3.5 9.125 3.5 9.125 0 9.25 C-3.5 9.125 -3.5 9.125 -4.5 8.125 C-4.625 4.625 -4.625 4.625 -4.5 1.125 C-3.5 0.125 -3.5 0.125 0 0 Z M-0.5 4.125 C0.5 6.125 0.5 6.125 0.5 6.125 Z " fill="#url(#gradient1)" transform="translate(34.5,33.875)"/>
<path d="M0 0 C3.5 0.125 3.5 0.125 4.5 1.125 C4.625 4.625 4.625 4.625 4.5 8.125 C3.5 9.125 3.5 9.125 0 9.25 C-3.5 9.125 -3.5 9.125 -4.5 8.125 C-4.625 4.625 -4.625 4.625 -4.5 1.125 C-3.5 0.125 -3.5 0.125 0 0 Z M-0.5 3.125 C0.5 5.125 0.5 5.125 0.5 5.125 Z " fill="#url(#gradient1)" transform="translate(70.5,32.875)"/>
<path d="M0 0 C3.5 0.125 3.5 0.125 4.5 1.125 C4.625 4.625 4.625 4.625 4.5 8.125 C3.5 9.125 3.5 9.125 0 9.25 C-3.5 9.125 -3.5 9.125 -4.5 8.125 C-4.625 4.625 -4.625 4.625 -4.5 1.125 C-3.5 0.125 -3.5 0.125 0 0 Z M-0.5 3.125 C0.5 5.125 0.5 5.125 0.5 5.125 Z " fill="#url(#gradient1)" transform="translate(12.5,32.875)"/>
<path d="M0 0 C3.5 0.125 3.5 0.125 4.5 1.125 C4.625 4.625 4.625 4.625 4.5 8.125 C3.5 9.125 3.5 9.125 0 9.25 C-3.5 9.125 -3.5 9.125 -4.5 8.125 C-4.625 4.625 -4.625 4.625 -4.5 1.125 C-3.5 0.125 -3.5 0.125 0 0 Z M-0.5 3.125 C0.5 5.125 0.5 5.125 0.5 5.125 Z " fill="#url(#gradient1)" transform="translate(70.5,21.875)"/>
<path d="M0 0 C3.5 0.125 3.5 0.125 4.5 1.125 C4.625 4.625 4.625 4.625 4.5 8.125 C3.5 9.125 3.5 9.125 0 9.25 C-3.5 9.125 -3.5 9.125 -4.5 8.125 C-4.625 4.625 -4.625 4.625 -4.5 1.125 C-3.5 0.125 -3.5 0.125 0 0 Z M-0.5 3.125 C0.5 5.125 0.5 5.125 0.5 5.125 Z " fill="#url(#gradient1)" transform="translate(12.5,21.875)"/>
</svg>
