<?xml version="1.0" encoding="UTF-8"?>
<svg version="1.1" xmlns="http://www.w3.org/2000/svg" width="81" height="80">
  <defs>
    <!-- Define the gradient from red to blue -->
    <linearGradient id="gradient1" x1="0%" y1="0%" x2="100%" y2="0%">
      <stop offset="0%" style="stop-color:#2300a2; stop-opacity:1" />
      <stop offset="100%" style="stop-color:#f00c09; stop-opacity:1" />
    </linearGradient>
  </defs>
<path d="M0 0 C0.78375 0.495 1.5675 0.99 2.375 1.5 C5.42042649 1.7669965 5.42042649 1.7669965 7.75 0 C14.15035286 -2.64842187 21.33362218 -2.53189604 27.875 -0.3125 C33.99758304 4.1263727 38.52651923 9.26341668 39.76171875 16.88671875 C40.27887418 28.24630533 34.71835076 36.35225392 27.375 44.5 C22.43185523 49.83384006 17.45022499 54.49293671 11.375 58.5 C11.87 63.45 11.87 63.45 12.375 68.5 C14.0146875 67.819375 14.0146875 67.819375 15.6875 67.125 C16.30238281 66.86976562 16.91726562 66.61453125 17.55078125 66.3515625 C19.64033932 65.43193308 19.64033932 65.43193308 22.375 63.5 C24.3125 63.234375 24.3125 63.234375 26.375 63.25 C27.055625 63.24484375 27.73625 63.2396875 28.4375 63.234375 C30.375 63.5 30.375 63.5 33.375 65.5 C33.375 66.16 33.375 66.82 33.375 67.5 C33.99375 67.603125 34.6125 67.70625 35.25 67.8125 C37.375 68.5 37.375 68.5 39.375 71.5 C39 75.1875 39 75.1875 38.375 78.5 C34.10452167 78.64486019 29.83467167 78.73392616 25.5625 78.8125 C24.34755859 78.85439453 23.13261719 78.89628906 21.88085938 78.93945312 C20.13579102 78.96362305 20.13579102 78.96362305 18.35546875 78.98828125 C16.74514771 79.02755737 16.74514771 79.02755737 15.10229492 79.06762695 C12.375 78.5 12.375 78.5 10.5012207 75.96948242 C10.12956787 75.15455322 9.75791504 74.33962402 9.375 73.5 C8.715 74.16 8.055 74.82 7.375 75.5 C5.39746094 75.39086914 5.39746094 75.39086914 3.375 74.5 C2.09472656 72.64233398 2.09472656 72.64233398 1.015625 70.24609375 C0.42587891 68.96508789 0.42587891 68.96508789 -0.17578125 67.65820312 C-0.57152344 66.76037109 -0.96726563 65.86253906 -1.375 64.9375 C-1.78621094 64.03580078 -2.19742188 63.13410156 -2.62109375 62.20507812 C-3.63556126 59.97560884 -4.63608285 57.74089134 -5.625 55.5 C-11.57138877 60.28005225 -11.57138877 60.28005225 -15.234375 66.66796875 C-15.26015625 67.33441406 -15.2859375 68.00085938 -15.3125 68.6875 C-15.6852726 73.23532574 -16.8070602 74.42404791 -19.95703125 77.46875 C-21.625 78.5 -21.625 78.5 -25.625 78.5 C-26.13059908 77.06445975 -26.6292749 75.6264798 -27.125 74.1875 C-27.4034375 73.38699219 -27.681875 72.58648437 -27.96875 71.76171875 C-28.625 69.5 -28.625 69.5 -28.625 66.5 C-29.39585938 66.29503906 -30.16671875 66.09007813 -30.9609375 65.87890625 C-31.96382812 65.60949219 -32.96671875 65.34007813 -34 65.0625 C-34.99773438 64.79566406 -35.99546875 64.52882813 -37.0234375 64.25390625 C-39.625 63.5 -39.625 63.5 -41.625 62.5 C-41.29599252 59.5389327 -40.40761037 58.21673473 -38.5625 55.8125 C-35.30394607 53.24725542 -33.8207729 53.35025929 -29.828125 53.14453125 C-25.03925623 51.74353241 -21.81364794 47.1536591 -18.625 43.5 C-22.20711445 40.49951754 -26.15512116 38.72301226 -30.375 36.8125 C-31.07238281 36.49216797 -31.76976562 36.17183594 -32.48828125 35.84179688 C-34.19857208 35.05693739 -35.91152507 34.27788352 -37.625 33.5 C-37.26105684 30.80682063 -36.92127103 28.91495792 -35.328125 26.68359375 C-32.46484419 24.69374493 -30.05593968 25.47512278 -26.7265625 25.90234375 C-21.71056368 26.86890272 -16.83688991 28.30138802 -11.9453125 29.7578125 C-8.14588256 30.63991244 -8.14588256 30.63991244 -4.625 29.5 C-2.7821929 27.9366569 -2.7821929 27.9366569 -1 26.0625 C3.32755609 22.10842905 7.5442103 20.74855942 13.375 20.5 C14.365 20.83 15.355 21.16 16.375 21.5 C16.83197835 27.89769692 15.98582583 32.14339952 12.375 37.5 C11.24090451 38.65745215 10.09503122 39.80348522 8.9375 40.9375 C7.31038942 42.54546104 7.31038942 42.54546104 6.375 44.5 C6.76160808 47.80470471 7.8859879 50.54209759 9.375 53.5 C20.80323624 44.61370601 32.4849366 34.8403804 35 19.75 C33.92200945 14.14444916 31.95222158 9.9645629 27.75 6.0625 C23.02390469 2.95322677 18.95524282 2.86417023 13.375 3.5 C10.77318107 4.57796641 8.74764949 5.93405133 6.375 7.5 C4.25 8.5 4.25 8.5 2.375 8.5 C-0.25 6.625 -0.25 6.625 -2.625 4.5 C-7.9981053 1.81344735 -15.87510101 3.50001757 -21.625 4.5 C-21.375 2.625 -21.375 2.625 -20.625 0.5 C-14.92646786 -3.34853474 -6.04670681 -2.50208558 0 0 Z M3.25 28.8125 C2.58742187 29.42738281 1.92484375 30.04226562 1.2421875 30.67578125 C-0.62002215 32.43564711 -0.62002215 32.43564711 -2.109375 34.265625 C-3.625 35.5 -3.625 35.5 -5.5078125 35.49609375 C-6.24773438 35.31175781 -6.98765625 35.12742187 -7.75 34.9375 C-8.61625 34.73253906 -9.4825 34.52757812 -10.375 34.31640625 C-11.4475 34.04699219 -12.52 33.77757812 -13.625 33.5 C-15.10357008 33.15240038 -16.58278665 32.80754386 -18.0625 32.46484375 C-22.25388242 31.49245353 -26.44014461 30.50009305 -30.625 29.5 C-30.955 30.16 -31.285 30.82 -31.625 31.5 C-25.355 34.47 -19.085 37.44 -12.625 40.5 C-13.65618254 45.65591268 -15.07432813 47.71777472 -18.625 51.25 C-19.36061157 51.99056641 -19.36061157 51.99056641 -20.11108398 52.74609375 C-24.62137382 57.00479911 -27.60719159 57.5 -33.625 57.5 C-34.285 58.49 -34.945 59.48 -35.625 60.5 C-35.02171875 60.61214844 -34.4184375 60.72429688 -33.796875 60.83984375 C-27.34676178 62.43156524 -27.34676178 62.43156524 -25.13671875 65.703125 C-24.16663943 67.94665389 -23.32666387 70.15948485 -22.625 72.5 C-21.635 71.84 -20.645 71.18 -19.625 70.5 C-19.645625 69.22125 -19.66625 67.9425 -19.6875 66.625 C-19.32891884 61.26377429 -16.40327422 58.538837 -12.75 54.9375 C-12.20738525 54.4007666 -11.66477051 53.8640332 -11.10571289 53.31103516 C-7.05254014 49.5 -7.05254014 49.5 -3.625 49.5 C0.83 58.905 0.83 58.905 5.375 68.5 C6.035 68.5 6.695 68.5 7.375 68.5 C6.82399167 61.75014795 5.07646491 55.47414288 3.21484375 48.98828125 C1.89772174 43.51763029 1.89772174 43.51763029 2.375 40.5 C4.0546875 38.40234375 4.0546875 38.40234375 6.25 36.4375 C8.99249738 33.95549072 11.04080785 31.98996577 12.375 28.5 C12.375 27.51 12.375 26.52 12.375 25.5 C8.06010214 25.10158609 6.37181892 25.85595385 3.25 28.8125 Z M24.375 67.5 C22.87485609 68.83289654 22.87485609 68.83289654 21.375 70.5 C18.1875 71.6875 18.1875 71.6875 15.375 72.5 C15.375 73.16 15.375 73.82 15.375 74.5 C21.975 74.5 28.575 74.5 35.375 74.5 C34.65598639 71.36974337 34.65598639 71.36974337 32.125 69.875 C29.40513695 68.51506848 27.41198658 67.6598414 24.375 67.5 Z " fill="url(#gradient1)" transform="translate(41.625,1.5)"/>
<path d="M0 0 C3.0625 2.3125 3.0625 2.3125 6 5 C7.0725 5.53625 8.145 6.0725 9.25 6.625 C12 8 12 8 14 11 C14 12.98 14 14.96 14 17 C2.45 17 -9.1 17 -21 17 C-22 12 -22 12 -20.9375 9.25 C-18.43002369 6.33809203 -16.70096863 6.55120809 -13 6 C-11.83333333 4.08333333 -11.83333333 4.08333333 -11 2 C-7.55423333 -0.55241975 -4.15816417 -0.5018474 0 0 Z M-8.4375 6.375 C-9.283125 7.24125 -10.12875 8.1075 -11 9 C-12.64797236 9.71162443 -14.31165408 10.39031953 -16 11 C-16.33 11.66 -16.66 12.32 -17 13 C-8.42 13 0.16 13 9 13 C9 12.34 9 11.68 9 11 C8.113125 10.773125 7.22625 10.54625 6.3125 10.3125 C2.55762439 8.8247191 0.8215267 6.8215267 -2 4 C-6.08972 3.53475685 -6.08972 3.53475685 -8.4375 6.375 Z " fill="url(#gradient1)" transform="translate(22,7)"/>
<path d="M0 0 C3.48170548 0.29014212 4.74228955 0.72756324 7.1875 3.3125 C10.51522023 8.24670586 11.23436559 10.90649463 11 17 C9.68 17 8.36 17 7 17 C6.84144531 16.40832031 6.68289062 15.81664062 6.51953125 15.20703125 C4.91836612 9.78430074 3.34510752 6.64049549 -1 3 C-0.67 2.01 -0.34 1.02 0 0 Z " fill="url(#gradient1)" transform="translate(62,8)"/>
<path d="M0 0 C-0.56426152 3.79594117 -2.18251862 5.58710633 -4.875 8.25 C-5.57367188 8.95640625 -6.27234375 9.6628125 -6.9921875 10.390625 C-9 12 -9 12 -12 12 C-11.85015836 7.05522572 -9.16394878 4.68957045 -5.88671875 1.35546875 C-4 0 -4 0 0 0 Z " fill="url(#gradient1)" transform="translate(31,50)"/>
<path d="M0 0 C1.98 0.495 1.98 0.495 4 1 C3.67 1.99 3.34 2.98 3 4 C1.68 3.67 0.36 3.34 -1 3 C-0.67 2.01 -0.34 1.02 0 0 Z " fill="url(#gradient1)" transform="translate(31,46)"/>
<path d="M0 0 C0.99 0.33 1.98 0.66 3 1 C3 1.99 3 2.98 3 4 C1.68 4 0.36 4 -1 4 C-0.67 2.68 -0.34 1.36 0 0 Z " fill="url(#gradient1)" transform="translate(56,6)"/>
</svg>
